#!OML:ASF F:\VICON\USERDATA\INSTALL\rory3\rory3.ASF
:FULLY-SPECIFIED
:DEGREES
189
root -0.397574 17.0116 9.80792 9.90169 43.6553 11.0925
lowerback 5.48336 -3.15051 -8.19969
upperback -0.400661 -4.70464 0.981913
thorax -2.75249 -2.2139 5.95745
lowerneck -18.5083 -3.16821 -10.1324
upperneck 21.9836 -2.41808 4.25284
head 10.2824 -1.43974 2.85798
rclavicle 7.54388e-014 7.95139e-016
rhumerus -39.6352 -12.2603 -78.2187
rradius 27.2283
rwrist 7.78756
rhand -12.0332 12.8207
rfingers 7.12502
rthumb 14.025 -16.6862
lclavicle 7.54388e-014 7.95139e-016
lhumerus -27.8103 4.60264 85.1386
lradius 44.8542
lwrist 0.689296
lhand -15.4701 25.5891
lfingers 7.12502
lthumb 10.7114 55.296
rfemur -34.9047 -3.10017 10.721
rtibia 22.6404
rfoot -9.41411 -14.6796
rtoes -1.23835
lfemur 7.37945 2.26722 -34.5403
ltibia 18.3315
lfoot -18.1554 -2.06737
ltoes 2.52184
190
root -0.277876 17.0101 10.0671 9.64063 44.0373 10.8076
lowerback 5.40159 -3.23412 -8.62007
upperback -0.4042 -4.83013 1.20049
thorax -2.6378 -2.2753 6.42253
lowerneck -18.6554 -3.23709 -9.99774
upperneck 22.1773 -2.51789 4.16538
head 10.3853 -1.48689 2.79195
rclavicle -9.12422e-014 7.15625e-015
rhumerus -40.112 -12.517 -78.1366
rradius 27.3573
rwrist 7.54014
rhand -12.2488 12.6802
rfingers 7.12502
rthumb 13.8172 -16.8409
lclavicle -9.12422e-014 7.15625e-015
lhumerus -27.6194 4.54171 85.0081
lradius 45.4364
lwrist 0.425469
lhand -15.8736 24.5146
lfingers 7.12502
lthumb 10.322 54.2412
rfemur -34.2488 -0.90574 10.1529
rtibia 20.1178
rfoot -10.1203 -16.878
rtoes -2.25235
lfemur 9.00607 2.13805 -33.6577
ltibia 17.2236
lfoot -17.7386 -3.04102
ltoes 2.10797
191
root -0.154281 17.0074 10.3077 9.47355 44.5042 10.6238
lowerback 5.38909 -3.27761 -8.89066
upperback -0.410426 -4.90069 1.34907
thorax -2.59034 -2.30853 6.73342
lowerneck -18.6007 -3.29035 -9.88017
upperneck 22.1066 -2.61568 4.0949
head 10.3542 -1.52936 2.73189
rclavicle 6.39093e-014 -5.56597e-015
rhumerus -40.4377 -12.7931 -78.0807
rradius 27.1911
rwrist 7.11127
rhand -12.7908 12.7101
rfingers 7.12502
rthumb 13.2949 -16.8458
lclavicle 6.39093e-014 -5.56597e-015
lhumerus -27.3394 4.26009 84.9403
lradius 45.8902
lwrist 0.22254
lhand -16.0544 21.7516
lfingers 7.12502
lthumb 10.1476 51.4869
rfemur -33.6649 0.89336 9.55999
rtibia 18.1465
rfoot -10.5241 -18.419
rtoes -2.00393
lfemur 10.4209 1.92913 -32.9202
ltibia 16.3348
lfoot -17.1595 -3.87787
ltoes 0.311569
192
root -0.0294046 17.0008 10.5394 9.3588 45.115 10.5
lowerback 5.2828 -3.40761 -9.15886
upperback -0.286748 -5.07022 1.53587
thorax -2.33074 -2.40763 7.07369
lowerneck -18.7253 -3.34507 -9.7566
upperneck 21.9764 -2.69343 4.00507
head 10.3332 -1.56238 2.6651
rclavicle 1.64991e-014 -1.27222e-014
rhumerus -40.5067 -13.2599 -77.8714
rradius 27.1173
rwrist 6.96618
rhand -12.9121 12.864
rfingers 7.12502
rthumb 13.1779 -16.6995
lclavicle 1.64991e-014 -1.27222e-014
lhumerus -26.9994 4.0932 84.9186
lradius 46.4965
lwrist -0.114233
lhand -16.2975 21.0445
lfingers 7.12502
lthumb 9.9131 50.7911
rfemur -33.2221 1.96725 9.23966
rtibia 16.9832
rfoot -11.0011 -19.3667
rtoes -0.453262
lfemur 11.6724 1.62755 -32.2357
ltibia 15.6846
lfoot -16.6692 -4.6339
ltoes -2.54152
193
root 0.0926517 16.9869 10.7697 9.35357 45.6482 10.6884
lowerback 5.38923 -3.55835 -9.62274
upperback -0.205672 -5.30431 1.64256
thorax -2.21041 -2.52853 7.46051
lowerneck -18.9549 -3.35869 -9.80913
upperneck 22.0562 -2.6977 4.10097
head 10.4076 -1.55699 2.70774
rclavicle -5.82439e-014 -1.43125e-014
rhumerus -40.6906 -13.4273 -77.7635
rradius 27.2763
rwrist 6.47699
rhand -12.8905 12.8089
rfingers 7.12502
rthumb 13.1988 -16.7533
lclavicle -5.82439e-014 -1.43125e-014
lhumerus -26.8101 3.92237 84.8118
lradius 47.0449
lwrist -0.183793
lhand -17.0534 24.4623
lfingers 7.12502
lthumb 9.18379 54.2423
rfemur -32.919 2.45552 9.04594
rtibia 16.7549
rfoot -11.2388 -19.7587
rtoes 1.48674
lfemur 12.8698 1.42099 -31.7508
ltibia 15.3593
lfoot -16.1884 -5.58556
ltoes -3.51738
194
root 0.224188 16.9662 10.9858 9.383 45.991 11.0184
lowerback 5.61403 -3.5923 -9.80974
upperback -0.131257 -5.38272 1.55842
thorax -2.23431 -2.56668 7.49424
lowerneck -19.0457 -3.44982 -9.97871
upperneck 21.9895 -2.83 4.35706
head 10.417 -1.59965 2.80748
rclavicle -4.7112e-014 -2.62396e-014
rhumerus -40.9961 -13.5763 -77.8127
rradius 27.5761
rwrist 5.72214
rhand -13.0144 12.5739
rfingers 7.12502
rthumb 13.0793 -16.996
lclavicle -4.7112e-014 -2.62396e-014
lhumerus -26.7131 3.36932 84.6812
lradius 47.6731
lwrist 0.0814407
lhand -16.9288 23.5184
lfingers 7.12502
lthumb 9.30405 53.2931
rfemur -32.8381 1.58986 9.39878
rtibia 17.3677
rfoot -10.5663 -18.6194
rtoes 1.5579
lfemur 14.0608 0.801361 -31.6348
ltibia 15.2978
lfoot -15.5438 -6.23986
ltoes -1.95977
195
root 0.363129 16.9471 11.2 9.12302 46.2204 10.9496
lowerback 5.78997 -3.56555 -9.56726
upperback -0.0636925 -5.34726 1.48622
thorax -2.29748 -2.55047 7.29163
lowerneck -19.0322 -3.58252 -10.0997
upperneck 21.7926 -3.02032 4.51663
head 10.363 -1.67525 2.85409
rclavicle 6.41081e-014 7.95139e-015
rhumerus -41.2475 -13.7995 -77.8265
rradius 27.6874
rwrist 5.20159
rhand -13.1756 12.1282
rfingers 7.12502
rthumb 12.9239 -17.4516
lclavicle 6.41081e-014 7.95139e-015
lhumerus -26.7762 2.51967 84.5782
lradius 48.446
lwrist 0.539817
lhand -17.3037 22.6134
lfingers 7.12502
lthumb 8.94231 52.4039
rfemur -32.935 0.185087 10.3459
rtibia 18.6092
rfoot -9.76069 -16.4682
rtoes 1.29446
lfemur 15.1233 0.377243 -31.2942
ltibia 15.4235
lfoot -14.7996 -6.7536
ltoes -2.15128
196
root 0.507017 16.9295 11.4201 8.73099 46.4318 10.8851
lowerback 6.08472 -3.62301 -9.43473
upperback 0.0152297 -5.4408 1.46015
thorax -2.37616 -2.59686 7.21457
lowerneck -19.1586 -3.58046 -10.1531
upperneck 21.7472 -3.01599 4.62768
head 10.3722 -1.66283 2.90241
rclavicle 5.18828e-014 1.74931e-014
rhumerus -41.4084 -13.7583 -77.9462
rradius 27.679
rwrist 4.60644
rhand -13.4743 12.0245
rfingers 7.12502
rthumb 12.636 -17.5733
lclavicle 5.18828e-014 1.74931e-014
lhumerus -26.8926 2.10252 84.4501
lradius 49.1764
lwrist 1.21525
lhand -17.9927 25.254
lfingers 7.12502
lthumb 8.27737 55.0718
rfemur -32.9484 -1.22489 11.3036
rtibia 20.3332
rfoot -9.54564 -14.0423
rtoes 1.01582
lfemur 16.1373 0.512487 -30.8038
ltibia 15.7374
lfoot -13.9842 -7.54836
ltoes -4.52669
197
root 0.655044 16.9177 11.6429 8.22963 46.6333 10.7611
lowerback 6.33724 -3.67253 -9.26341
upperback 0.169416 -5.51194 1.44192
thorax -2.35934 -2.64045 7.116
lowerneck -19.2938 -3.58204 -10.2147
upperneck 21.6345 -3.00431 4.70767
head 10.3577 -1.65029 2.94084
rclavicle 1.26029e-013 1.59028e-015
rhumerus -41.5532 -13.8219 -78.0579
rradius 27.7481
rwrist 4.03823
rhand -13.5178 12.1244
rfingers 7.12502
rthumb 12.5941 -17.4759
lclavicle 1.26029e-013 1.59028e-015
lhumerus -26.6097 2.37499 84.2927
lradius 49.1255
lwrist 1.45546
lhand -18.9276 25.5998
lfingers 7.12502
lthumb 7.37505 55.4512
rfemur -32.88 -2.40343 12.1814
rtibia 22.2256
rfoot -9.71199 -11.6632
rtoes -0.0278438
lfemur 17.1001 0.0904011 -30.5169
ltibia 16.3619
lfoot -12.9673 -7.79749
ltoes -6.14842
198
root 0.798936 16.9072 11.873 8.00966 46.7647 11.0081
lowerback 6.4847 -3.6931 -9.51849
upperback 0.337667 -5.5644 1.4058
thorax -2.23464 -2.67665 7.22672
lowerneck -19.2782 -3.57315 -10.2597
upperneck 21.392 -2.99188 4.7637
head 10.2674 -1.6382 2.96666
rclavicle 6.24184e-014 -3.26007e-014
rhumerus -41.6338 -14.0525 -77.9912
rradius 27.8039
rwrist 3.83821
rhand -13.377 11.9629
rfingers 7.12502
rthumb 12.7297 -17.6291
lclavicle 6.24184e-014 -3.26007e-014
lhumerus -26.4217 2.76421 84.1145
lradius 48.9843
lwrist 1.36337
lhand -19.1493 24.3839
lfingers 7.12502
lthumb 7.16103 54.2427
rfemur -32.7033 -3.30659 12.6618
rtibia 24.0431
rfoot -9.71894 -9.48071
rtoes -1.8768
lfemur 17.8642 -0.623876 -30.6834
ltibia 17.2573
lfoot -11.771 -7.51438
ltoes -9.17576
199
root 0.945296 16.9015 12.1125 7.90335 46.9605 11.3117
lowerback 6.57612 -3.72183 -9.8367
upperback 0.370141 -5.63442 1.36817
thorax -2.21174 -2.71081 7.37443
lowerneck -18.8983 -3.5323 -10.2078
upperneck 21.0942 -2.96416 4.66497
head 10.0849 -1.63175 2.92396
rclavicle 7.38982e-014 7.15625e-015
rhumerus -41.8454 -14.0244 -77.9004
rradius 27.8271
rwrist 3.5591
rhand -13.224 11.785
rfingers 7.12502
rthumb 12.8773 -17.7977
lclavicle 7.38982e-014 7.15625e-015
lhumerus -26.6524 2.68361 83.9931
lradius 49.1657
lwrist 1.44432
lhand -19.1152 24.1478
lfingers 7.12502
lthumb 7.19396 54.0055
rfemur -32.2991 -3.30183 12.728
rtibia 25.653
rfoot -9.31369 -8.35656
rtoes 7.53418
lfemur 18.3032 -0.997171 -30.6867
ltibia 18.4538
lfoot -10.3435 -7.6146
ltoes -12.6473
200
root 1.09045 16.9131 12.358 7.55109 47.261 11.1512
lowerback 6.64537 -3.75332 -9.82169
upperback 0.391856 -5.67942 1.44264
thorax -2.2124 -2.73434 7.45196
lowerneck -18.786 -3.52795 -10.1392
upperneck 20.9711 -2.93182 4.43382
head 10.0135 -1.63736 2.83317
rclavicle 5.58585e-014 1.51076e-014
rhumerus -41.9749 -13.9399 -77.778
rradius 27.7225
rwrist 3.45417
rhand -13.1365 11.7574
rfingers 7.12502
rthumb 12.9616 -17.82
lclavicle 5.58585e-014 1.51076e-014
lhumerus -26.716 2.77015 83.9356
lradius 49.0891
lwrist 1.41965
lhand -18.9616 23.9884
lfingers 7.12502
lthumb 7.34217 53.841
rfemur -31.869 -2.35056 12.7701
rtibia 26.9973
rfoot -8.24221 -8.37466
rtoes 9.35088
lfemur 18.396 -1.54851 -30.3344
ltibia 20.0857
lfoot -8.62055 -7.82566
ltoes -14.2372
201
root 1.237 16.9359 12.6092 7.2169 47.6698 10.9483
lowerback 6.58229 -3.88721 -9.88608
upperback 0.483761 -5.84737 1.59114
thorax -2.02446 -2.83267 7.64141
lowerneck -19.1169 -3.48468 -9.94245
upperneck 21.1885 -2.80361 4.06387
head 10.1347 -1.60651 2.68771
rclavicle -4.86029e-014 -1.59028e-015
rhumerus -41.989 -13.8071 -77.7306
rradius 27.7011
rwrist 3.35409
rhand -13.2466 11.9016
rfingers 7.12502
rthumb 12.8555 -17.6825
lclavicle -4.86029e-014 -1.59028e-015
lhumerus -26.8461 2.85352 83.836
lradius 49.1153
lwrist 1.79082
lhand -18.9202 23.069
lfingers 7.12502
lthumb 7.38217 52.9202
rfemur -31.4506 -1.39555 12.7393
rtibia 28.0548
rfoot -6.42314 -8.64255
rtoes 6.68932
lfemur 18.139 -2.24203 -29.9088
ltibia 22.2075
lfoot -6.52103 -8.34174
ltoes -15.3765
